# xmcd
#
# Track frame offsets:
#   150
#   2539
#   27719
#   46636
#   69122
#   93554
#   99326
#   116370
#   136985
#   158515
#   180556
#   182412
#   208031
#   233003
#   257437
#   260073
#   280335
#   303687
#   326173
#   346351
#
# Disc length: 4679 seconds
#
# Revision: 0
# Processed by: cddbd v1.5PL3 Copyright (c) Steve Scherf et al.
# Submitted via: uFREEDB 1.6.0
#
DISCID=0c124514
DTITLE=Eminem - The eminem show
DYEAR=1900
DGENRE=Rap
TTITLE0=Curtains up
TTITLE1=White America
TTITLE2=Business
TTITLE3=Cleanin out my closet
TTITLE4=Square dance
TTITLE5=The kiss
TTITLE6=Soldier
TTITLE7=Say goodbye hollywood
TTITLE8=Drips
TTITLE9=Without me
TTITLE10=Paul rosenberg
TTITLE11=Sing for the moment
TTITLE12=Superman
TTITLE13=Hailie´s song
TTITLE14=Steve berman
TTITLE15=When the music stops
TTITLE16=say what you say
TTITLE17=¨trill i collapse
TTITLE18=My dad´s gone crazy
TTITLE19=Curtains clse
EXTD=
EXTT0=
EXTT1=
EXTT2=
EXTT3=
EXTT4=
EXTT5=
EXTT6=
EXTT7=
EXTT8=
EXTT9=
EXTT10=
EXTT11=
EXTT12=
EXTT13=
EXTT14=
EXTT15=
EXTT16=
EXTT17=
EXTT18=
EXTT19=
PLAYORDER=
